#N canvas 575 400 450 300 10;
#X obj 91 69 overo_gpioin 1;
#X floatatom 88 128 5 0 0 0 - - -;
#X obj 131 36 metro 50;
#X floatatom 193 129 5 0 0 0 - - -;
#X obj 196 70 overo_gpioin 2;
#X obj 127 9 tgl 15 0 empty empty empty 17 7 0 10 -262144 -1 -1 1 1
;
#X connect 0 0 1 0;
#X connect 2 0 0 0;
#X connect 2 0 4 0;
#X connect 4 0 3 0;
#X connect 5 0 2 0;
